<svg width="206" height="28" viewBox="0 0 206 28" fill="none" xmlns="http://www.w3.org/2000/svg">
<path d="M91.5523 11.215C91.5017 11.0283 91.4103 10.8551 91.2846 10.708C91.1428 10.5511 90.9669 10.429 90.7704 10.351C90.5245 10.2513 90.2663 10.1853 90.0027 10.1546C89.6473 10.1114 89.2895 10.0911 88.9316 10.0939H83.6829V17.9134H85.004V14.9998H88.3567C88.7957 15.0046 89.2345 14.982 89.6707 14.932C89.9837 14.898 90.2917 14.8272 90.5883 14.7213C90.8196 14.6445 91.0298 14.5149 91.2024 14.3428C91.3495 14.1895 91.4605 14.0053 91.5274 13.8037C91.592 13.5976 91.6292 13.3839 91.638 13.1681C91.638 12.9575 91.638 12.7254 91.638 12.454C91.638 12.1826 91.638 11.9934 91.638 11.7935C91.6342 11.5978 91.6054 11.4034 91.5523 11.215ZM88.3567 13.7465H85.004V11.3436H88.3567C88.7138 11.3436 89.0315 11.3436 89.2815 11.3436C89.4778 11.3477 89.6736 11.3668 89.8671 11.4007C89.97 11.4177 90.0691 11.4527 90.1598 11.5042C90.2085 11.5375 90.2459 11.5848 90.2669 11.6399C90.3011 11.7338 90.3192 11.8328 90.3205 11.9327C90.3205 12.0791 90.3205 12.2541 90.3205 12.454C90.3205 12.654 90.3205 12.861 90.3205 13.0182C90.3206 13.1395 90.3013 13.26 90.2634 13.3752C90.2421 13.4409 90.2009 13.4983 90.1456 13.5394C90.0609 13.6005 89.963 13.6409 89.8599 13.6573C89.6673 13.699 89.4713 13.7229 89.2743 13.7287C89.028 13.7394 88.7209 13.7465 88.3567 13.7465Z" fill="#444444"/>
<path d="M100.943 11.2008C100.874 11.0074 100.762 10.8326 100.614 10.6902C100.436 10.5306 100.227 10.4091 100 10.3331C99.7033 10.2367 99.3968 10.1732 99.0861 10.1439C98.6507 10.1003 98.2133 10.08 97.7757 10.0832H92.8412V17.9134H94.1623V14.9999H97.6543C98.0113 14.9999 98.3255 14.9999 98.5719 15.0213C98.7686 15.0307 98.9643 15.0546 99.1575 15.0927C99.2596 15.1125 99.3567 15.1525 99.4431 15.2105C99.498 15.2537 99.5389 15.3121 99.561 15.3783C99.5991 15.4936 99.6195 15.614 99.6217 15.7354C99.6217 15.8925 99.6217 16.0924 99.6217 16.296V17.9134H100.946V16.2781C100.947 16.03 100.934 15.7821 100.907 15.5354C100.885 15.3197 100.826 15.1095 100.732 14.9142C100.643 14.7303 100.508 14.5729 100.339 14.4571C100.524 14.3385 100.677 14.1767 100.786 13.9858C100.9 13.7774 100.977 13.55 101.011 13.3146C101.053 13.0357 101.074 12.754 101.071 12.4719C101.071 12.2291 101.071 12.0077 101.071 11.8078C101.059 11.6002 101.015 11.3957 100.943 11.2008ZM94.1587 11.3436H97.79C98.147 11.3436 98.4612 11.3436 98.7112 11.3436C98.9087 11.3475 99.1057 11.3666 99.3003 11.4007C99.4032 11.4177 99.5024 11.4528 99.5931 11.5043C99.6418 11.5375 99.6792 11.5849 99.7002 11.64C99.7343 11.7339 99.7524 11.8328 99.7538 11.9328C99.7538 12.0791 99.7538 12.2541 99.7538 12.4541C99.7538 12.654 99.7538 12.8611 99.7538 13.0182C99.7538 13.1395 99.7346 13.26 99.6966 13.3753C99.6732 13.4408 99.6325 13.4988 99.5788 13.5431C99.4928 13.601 99.3954 13.6399 99.2932 13.6573C99.1005 13.6985 98.9045 13.7224 98.7076 13.7287C98.4577 13.7287 98.1542 13.7502 97.79 13.7502H94.1444L94.1587 11.3436Z" fill="#444444"/>
<path d="M111.197 11.8077C111.145 11.5216 111.045 11.2464 110.901 10.9936C110.755 10.7429 110.547 10.5339 110.298 10.3866C110.008 10.2127 109.69 10.0917 109.359 10.0296C108.919 9.95174 108.473 9.91587 108.027 9.92246H105.527C105.081 9.91604 104.635 9.95191 104.196 10.0296C103.864 10.0922 103.546 10.2131 103.257 10.3866C103.008 10.535 102.8 10.7438 102.653 10.9936C102.509 11.2466 102.408 11.5217 102.353 11.8077C102.291 12.1375 102.258 12.472 102.253 12.8075C102.253 13.1645 102.253 13.5573 102.253 13.9929C102.253 14.4285 102.253 14.8212 102.253 15.1819C102.258 15.5162 102.291 15.8495 102.353 16.1781C102.408 16.465 102.51 16.7412 102.653 16.9957C102.801 17.2438 103.008 17.4511 103.257 17.5991C103.546 17.7727 103.864 17.8936 104.196 17.9562C104.635 18.0339 105.081 18.0697 105.527 18.0633H108.027C108.473 18.0699 108.919 18.034 109.359 17.9562C109.69 17.894 110.008 17.7731 110.298 17.5991C110.548 17.4528 110.756 17.2435 110.901 16.9921C111.045 16.7394 111.145 16.4642 111.197 16.1781C111.259 15.8493 111.293 15.5162 111.301 15.1819C111.301 14.8248 111.301 14.4285 111.301 13.9929C111.301 13.5573 111.301 13.1609 111.301 12.8039C111.293 12.4696 111.259 12.1365 111.197 11.8077ZM108.027 16.8065H105.527C105.17 16.8065 104.863 16.8065 104.617 16.7708C104.429 16.7606 104.244 16.7184 104.071 16.6458C103.959 16.6007 103.864 16.5237 103.796 16.4244C103.716 16.284 103.663 16.1303 103.639 15.971C103.596 15.7089 103.573 15.4439 103.571 15.1783C103.571 14.8498 103.571 14.4642 103.571 14.0036C103.571 13.543 103.571 13.1574 103.571 12.8289C103.57 12.5633 103.592 12.2982 103.635 12.0362C103.659 11.8779 103.713 11.7255 103.792 11.5863C103.859 11.4852 103.955 11.4067 104.067 11.3614C104.242 11.2888 104.428 11.2466 104.617 11.2364C104.863 11.2114 105.17 11.2007 105.527 11.2007H108.027C108.384 11.2007 108.691 11.2007 108.937 11.2364C109.125 11.2457 109.31 11.288 109.484 11.3614C109.596 11.4067 109.692 11.4852 109.758 11.5863C109.841 11.724 109.894 11.8771 109.916 12.0362C109.958 12.2983 109.981 12.5633 109.983 12.8289C109.983 13.1574 109.983 13.543 109.983 14.0036C109.983 14.4642 109.983 14.8498 109.983 15.1783C109.981 15.4439 109.958 15.7089 109.916 15.971C109.895 16.1302 109.841 16.2834 109.758 16.4209C109.692 16.522 109.596 16.6005 109.484 16.6458C109.308 16.7171 109.123 16.7593 108.934 16.7708C108.687 16.785 108.38 16.7958 108.027 16.7958V16.8065Z" fill="#444444"/>
<path d="M112.318 11.34H115.646V17.8955H116.967V11.34H120.292V10.0903H112.318V11.34Z" fill="#444444"/>
<path d="M121.598 17.8955H128.739V16.6458H122.923V14.5427H128.465V13.2895H122.923V11.34H128.739V10.0903H121.598V17.8955Z" fill="#444444"/>
<path d="M137.894 11.1293C137.788 10.9252 137.646 10.7424 137.473 10.5902C137.285 10.4276 137.07 10.2995 136.838 10.2117C136.56 10.1094 136.271 10.0399 135.977 10.0046C135.605 9.95555 135.231 9.93288 134.856 9.93677H132.91C132.464 9.93035 132.018 9.96621 131.578 10.0439C131.246 10.106 130.928 10.227 130.639 10.4009C130.388 10.5481 130.179 10.7571 130.032 11.0079C129.888 11.2604 129.787 11.5358 129.736 11.822C129.674 12.1519 129.64 12.4863 129.632 12.8218C129.632 13.1788 129.632 13.5716 129.632 14.0072C129.632 14.4428 129.632 14.8356 129.632 15.1962C129.64 15.5305 129.674 15.8636 129.736 16.1924C129.788 16.4796 129.888 16.756 130.032 17.01C130.183 17.2574 130.391 17.4645 130.639 17.6134C130.929 17.787 131.246 17.9079 131.578 17.9705C132.018 18.0482 132.464 18.084 132.91 18.0776H134.856C135.231 18.0815 135.605 18.0588 135.977 18.0098C136.273 17.9727 136.563 17.9008 136.841 17.7955C137.078 17.6969 137.292 17.5525 137.473 17.3706C137.645 17.2085 137.783 17.0145 137.88 16.7994C137.983 16.5728 138.052 16.3321 138.084 16.0852C138.124 15.8002 138.143 15.5126 138.141 15.2247V14.9784H136.82V15.2247C136.821 15.437 136.81 15.6492 136.788 15.8603C136.775 16.0034 136.743 16.144 136.691 16.2781C136.655 16.3729 136.596 16.4574 136.52 16.5244C136.429 16.6003 136.323 16.6552 136.209 16.6851C136.032 16.7342 135.85 16.7653 135.666 16.7779C135.441 16.7994 135.167 16.8065 134.852 16.8065H132.906C132.549 16.8065 132.242 16.8065 131.996 16.7708C131.807 16.7607 131.621 16.7184 131.446 16.6458C131.335 16.6016 131.24 16.5244 131.175 16.4244C131.092 16.2854 131.039 16.1312 131.018 15.971C130.975 15.7089 130.952 15.4439 130.95 15.1783C130.95 14.8498 130.95 14.4642 130.95 14.0036C130.95 13.543 130.95 13.1574 130.95 12.8289C130.952 12.5633 130.975 12.2983 131.018 12.0362C131.039 11.8771 131.092 11.7241 131.175 11.5864C131.241 11.4852 131.337 11.4067 131.45 11.3614C131.624 11.2884 131.81 11.2462 131.999 11.2364C132.246 11.2115 132.553 11.2007 132.91 11.2007H134.856C135.196 11.197 135.535 11.2125 135.874 11.2472C136.076 11.2609 136.273 11.322 136.448 11.4257C136.58 11.5174 136.677 11.6507 136.723 11.8042C136.798 12.0737 136.832 12.3529 136.823 12.6325V12.8753H138.144V12.6325C138.147 12.3648 138.128 12.0974 138.087 11.8327C138.06 11.5897 137.995 11.3524 137.894 11.1293Z" fill="#444444"/>
<path d="M139.191 11.34H142.518V17.8955H143.839V11.34H147.164V10.0903H139.191V11.34Z" fill="#444444"/>
<path d="M149.791 10.0903H148.47V17.8955H149.791V10.0903Z" fill="#444444"/>
<path d="M160.114 11.8077C160.063 11.5218 159.964 11.2466 159.821 10.9936C159.675 10.7429 159.468 10.5339 159.218 10.3866C158.928 10.2131 158.61 10.0922 158.279 10.0296C157.839 9.95191 157.393 9.91604 156.947 9.92246H154.447C154.001 9.91587 153.555 9.95174 153.116 10.0296C152.784 10.0917 152.466 10.2127 152.177 10.3866C151.926 10.5338 151.717 10.7428 151.57 10.9936C151.425 11.2461 151.325 11.5214 151.273 11.8077C151.21 12.1373 151.175 12.4718 151.17 12.8075C151.17 13.1645 151.17 13.5573 151.17 13.9929C151.17 14.4285 151.17 14.8212 151.17 15.1819C151.175 15.5163 151.21 15.8496 151.273 16.1781C151.326 16.4653 151.426 16.7417 151.57 16.9957C151.718 17.2447 151.927 17.4522 152.177 17.5991C152.466 17.7731 152.784 17.894 153.116 17.9562C153.555 18.034 154.001 18.0699 154.447 18.0633H156.947C157.393 18.0697 157.839 18.0339 158.279 17.9562C158.61 17.8936 158.928 17.7727 159.218 17.5991C159.467 17.4507 159.674 17.242 159.821 16.9921C159.964 16.7392 160.063 16.464 160.114 16.1781C160.178 15.8497 160.214 15.5164 160.221 15.1819C160.221 14.8248 160.221 14.4285 160.221 13.9929C160.221 13.5573 160.221 13.1609 160.221 12.8039C160.214 12.4694 160.178 12.1361 160.114 11.8077ZM156.947 16.8065H154.447C154.09 16.8065 153.783 16.8065 153.537 16.7708C153.348 16.761 153.162 16.7188 152.987 16.6458C152.876 16.6016 152.781 16.5243 152.716 16.4244C152.633 16.2854 152.58 16.1312 152.559 15.971C152.516 15.7089 152.493 15.4439 152.491 15.1783C152.491 14.8498 152.491 14.4642 152.491 14.0036C152.491 13.543 152.491 13.1574 152.491 12.8289C152.494 12.5635 152.515 12.2986 152.555 12.0362C152.579 11.8773 152.633 11.7245 152.716 11.5863C152.782 11.4852 152.878 11.4067 152.991 11.3614C153.165 11.2884 153.351 11.2461 153.541 11.2364C153.787 11.2114 154.09 11.2007 154.451 11.2007H156.95C157.307 11.2007 157.615 11.2007 157.861 11.2364C158.049 11.2461 158.234 11.2884 158.407 11.3614C158.519 11.4067 158.613 11.4853 158.679 11.5863C158.761 11.7245 158.815 11.8773 158.839 12.0362C158.882 12.2983 158.905 12.5633 158.907 12.8289C158.907 13.1574 158.907 13.543 158.907 14.0036C158.907 14.4642 158.907 14.8498 158.907 15.1783C158.905 15.4439 158.882 15.7089 158.839 15.971C158.816 16.1301 158.761 16.283 158.679 16.4209C158.613 16.5228 158.517 16.6015 158.404 16.6458C158.228 16.7171 158.043 16.7593 157.854 16.7708C157.604 16.785 157.3 16.7958 156.947 16.7958V16.8065Z" fill="#444444"/>
<path d="M169.14 16.1245L163.395 10.0903H161.585V17.8955H162.906V11.697L169.008 17.8955H170.465V10.0903H169.14V16.1245Z" fill="#444444"/>
<path d="M173.171 16.4923H171.85V17.8955H173.171V16.4923Z" fill="#444444"/>
<path d="M182.505 11.1293C182.405 10.9268 182.27 10.7441 182.105 10.5902C181.916 10.4292 181.701 10.3012 181.469 10.2117C181.192 10.1094 180.903 10.0399 180.609 10.0046C180.236 9.95566 179.86 9.93299 179.484 9.93677H177.538C177.092 9.93035 176.646 9.96621 176.206 10.0439C175.875 10.1065 175.557 10.2274 175.267 10.4009C175.018 10.5493 174.811 10.7581 174.664 11.0079C174.52 11.2609 174.418 11.536 174.364 11.822C174.302 12.1518 174.269 12.4863 174.264 12.8218C174.264 13.1788 174.264 13.5716 174.264 14.0072C174.264 14.4428 174.264 14.8356 174.264 15.1962C174.269 15.5305 174.302 15.8638 174.364 16.1924C174.419 16.4794 174.52 16.7555 174.664 17.01C174.812 17.2581 175.019 17.4654 175.267 17.6134C175.557 17.787 175.875 17.9079 176.206 17.9705C176.646 18.0482 177.092 18.084 177.538 18.0776H179.484C179.86 18.0814 180.236 18.0587 180.609 18.0098C180.904 17.9723 181.194 17.9004 181.473 17.7955C181.709 17.6952 181.923 17.551 182.105 17.3706C182.274 17.2066 182.412 17.013 182.512 16.7994C182.612 16.5717 182.681 16.3314 182.716 16.0852C182.753 15.8 182.771 15.5125 182.769 15.2247V14.9784H181.448V15.2247C181.448 15.464 181.448 15.6782 181.419 15.8603C181.407 16.0034 181.375 16.144 181.323 16.2781C181.285 16.3731 181.225 16.4577 181.148 16.5244C181.059 16.6004 180.954 16.6553 180.841 16.6851C180.662 16.7342 180.479 16.7652 180.295 16.7779C180.07 16.7994 179.795 16.8065 179.481 16.8065H177.535C177.178 16.8065 176.871 16.8065 176.624 16.7708C176.436 16.7607 176.251 16.7184 176.078 16.6458C175.966 16.6007 175.871 16.5237 175.803 16.4244C175.724 16.284 175.67 16.1304 175.646 15.971C175.603 15.7089 175.58 15.4439 175.578 15.1783C175.578 14.8498 175.578 14.4642 175.578 14.0036C175.578 13.543 175.578 13.1574 175.578 12.8289C175.577 12.5634 175.599 12.2982 175.642 12.0362C175.667 11.878 175.72 11.7255 175.799 11.5864C175.866 11.4852 175.962 11.4067 176.074 11.3614C176.249 11.2888 176.435 11.2466 176.624 11.2364C176.871 11.2115 177.178 11.2007 177.535 11.2007H179.481C179.82 11.197 180.16 11.2125 180.498 11.2472C180.701 11.2598 180.899 11.321 181.073 11.4257C181.205 11.5174 181.301 11.6507 181.348 11.8042C181.423 12.0737 181.457 12.3529 181.448 12.6325V12.8753H182.769V12.6325C182.771 12.365 182.753 12.0977 182.716 11.8327C182.682 11.5887 182.611 11.3514 182.505 11.1293Z" fill="#444444"/>
<path d="M192.892 11.8077C192.839 11.5216 192.739 11.2464 192.595 10.9936C192.45 10.7439 192.243 10.535 191.995 10.3866C191.705 10.2132 191.386 10.0924 191.053 10.0296C190.613 9.95174 190.167 9.91587 189.721 9.92246H187.222C186.775 9.91604 186.329 9.95191 185.89 10.0296C185.558 10.0922 185.24 10.2131 184.951 10.3866C184.702 10.535 184.494 10.7438 184.347 10.9936C184.203 11.2466 184.102 11.5217 184.047 11.8077C183.985 12.1375 183.952 12.472 183.947 12.8075C183.947 13.1645 183.947 13.5573 183.947 13.9929C183.947 14.4285 183.947 14.8212 183.947 15.1819C183.952 15.5162 183.986 15.8495 184.047 16.1781C184.102 16.465 184.204 16.7412 184.347 16.9957C184.498 17.2451 184.709 17.4525 184.961 17.5991C185.251 17.7727 185.569 17.8936 185.9 17.9562C186.34 18.0339 186.786 18.0697 187.232 18.0633H189.732C190.178 18.0699 190.624 18.034 191.064 17.9562C191.395 17.894 191.713 17.7731 192.003 17.5991C192.253 17.4528 192.461 17.2435 192.606 16.9921C192.75 16.7394 192.85 16.4642 192.902 16.1781C192.964 15.8493 192.998 15.5162 193.006 15.1819C193.006 14.8248 193.006 14.4285 193.006 13.9929C193.006 13.5573 193.006 13.1609 193.006 12.8039C192.995 12.4693 192.956 12.1362 192.892 11.8077ZM189.721 16.8065H187.222C186.865 16.8065 186.561 16.8065 186.311 16.7708C186.123 16.7606 185.938 16.7184 185.765 16.6458C185.653 16.6007 185.558 16.5237 185.49 16.4244C185.411 16.284 185.357 16.1303 185.333 15.971C185.292 15.7086 185.269 15.4438 185.265 15.1783C185.265 14.8498 185.265 14.4642 185.265 14.0036C185.265 13.543 185.265 13.1574 185.265 12.8289C185.264 12.5633 185.286 12.2982 185.329 12.0362C185.354 11.8779 185.407 11.7255 185.486 11.5863C185.554 11.4851 185.651 11.4067 185.765 11.3614C185.938 11.2888 186.123 11.2465 186.311 11.2364C186.557 11.2114 186.865 11.2007 187.222 11.2007H189.721C190.078 11.2007 190.385 11.2007 190.631 11.2364C190.819 11.2457 191.004 11.288 191.178 11.3614C191.29 11.4067 191.386 11.4852 191.453 11.5863C191.535 11.724 191.589 11.8771 191.61 12.0362C191.653 12.2983 191.675 12.5633 191.678 12.8289C191.678 13.1574 191.678 13.543 191.678 14.0036C191.678 14.4642 191.678 14.8498 191.678 15.1783C191.675 15.4439 191.653 15.7089 191.61 15.971C191.589 16.1302 191.536 16.2834 191.453 16.4209C191.386 16.522 191.29 16.6005 191.178 16.6458C191.002 16.7171 190.817 16.7593 190.628 16.7708C190.382 16.785 190.074 16.7958 189.721 16.7958V16.8065Z" fill="#444444"/>
<path d="M203.56 10.0903L199.818 16.2638L196.084 10.0903H195.212L195.191 10.0582V10.0903H194.363V17.8955H195.684V11.8327L199.236 17.7777L199.308 17.8955H200.429L203.992 11.9327V17.8955H205.314V10.0903H203.56Z" fill="#444444"/>
<path d="M41.5291 11.6899C41.4797 11.418 41.3856 11.1562 41.2506 10.9151C41.1201 10.6911 40.9345 10.5043 40.7114 10.3724C40.4314 10.2126 40.1257 10.1026 39.8081 10.0475C39.3579 9.96779 38.9012 9.93073 38.4441 9.9368H35.7591C35.3008 9.9309 34.8429 9.96796 34.3915 10.0475C34.075 10.1025 33.7705 10.2125 33.4918 10.3724C33.271 10.5061 33.087 10.6926 32.9562 10.9151C32.8199 11.156 32.7246 11.4178 32.6741 11.6899C32.6127 12.0283 32.578 12.3709 32.5706 12.7147C32.5706 13.1003 32.5706 13.5288 32.5706 13.9929C32.5706 14.4571 32.5706 14.8891 32.5706 15.2712C32.578 15.615 32.6127 15.9576 32.6741 16.2959C32.7255 16.5689 32.8207 16.8318 32.9562 17.0743C33.0881 17.295 33.272 17.4801 33.4918 17.6135C33.77 17.7743 34.0747 17.8844 34.3915 17.9384C34.8427 18.0197 35.3007 18.0568 35.7591 18.0491H38.4441C38.9025 18.0568 39.3605 18.0197 39.8116 17.9384C40.1275 17.885 40.4311 17.7749 40.7078 17.6135C40.9292 17.4821 41.1135 17.2966 41.2434 17.0743C41.3777 16.8316 41.4717 16.5687 41.5219 16.2959C41.5864 15.958 41.6223 15.6152 41.629 15.2712C41.629 14.8856 41.629 14.4571 41.629 13.9929C41.629 13.5288 41.629 13.1003 41.629 12.7183C41.6246 12.3733 41.5912 12.0293 41.5291 11.6899ZM40.8828 15.2605C40.8811 15.5656 40.8548 15.8701 40.8042 16.171C40.7732 16.387 40.6991 16.5946 40.5864 16.7815C40.4778 16.9407 40.3252 17.0647 40.1473 17.1386C39.9267 17.2298 39.6927 17.2841 39.4546 17.2993C39.121 17.3291 38.7861 17.3422 38.4512 17.3385H35.7662C35.3663 17.3385 35.0307 17.3385 34.7557 17.2993C34.5177 17.2836 34.2837 17.2294 34.063 17.1386C33.8862 17.0645 33.7348 16.9404 33.6274 16.7815C33.5163 16.5939 33.4423 16.3866 33.4096 16.171C33.3626 15.8697 33.3375 15.5654 33.3347 15.2605C33.3347 14.9034 33.3347 14.4892 33.3347 13.9822C33.3347 13.4752 33.3347 13.0467 33.3347 12.704C33.3375 12.3991 33.3626 12.0948 33.4096 11.7935C33.4423 11.5779 33.5163 11.3705 33.6274 11.1829C33.7358 11.0235 33.8885 10.8994 34.0666 10.8259C34.287 10.7337 34.521 10.6783 34.7593 10.6616C35.0342 10.6366 35.3734 10.6223 35.7698 10.6223H38.4548C38.8511 10.6223 39.1904 10.6223 39.4617 10.6616C39.7001 10.6779 39.9341 10.7334 40.1544 10.8259C40.3317 10.8992 40.4833 11.0235 40.59 11.1829C40.7027 11.3698 40.7768 11.5774 40.8078 11.7935C40.8584 12.0944 40.8846 12.3989 40.8864 12.704C40.8864 13.061 40.8864 13.4752 40.8864 13.9822C40.8864 14.4892 40.8899 14.9177 40.8828 15.2712V15.2605Z" fill="#444444"/>
<path d="M51.8335 11.0829C51.7794 10.9229 51.6876 10.7784 51.5657 10.6616C51.4103 10.5222 51.2263 10.4186 51.0266 10.3581C50.7312 10.2602 50.4258 10.1955 50.1161 10.1652C49.6606 10.1182 49.2029 10.0968 48.745 10.101H43.7462V17.8848H44.5032V14.7498H48.5807C48.9771 14.7498 49.3163 14.7498 49.5876 14.7748C49.817 14.7834 50.0452 14.8121 50.2696 14.8605C50.4278 14.8956 50.5772 14.9624 50.7088 15.0569C50.8145 15.1448 50.8946 15.2595 50.9409 15.389C50.9915 15.5386 51.0192 15.6951 51.023 15.8531C51.023 16.0281 51.023 16.2316 51.023 16.478V17.9062H51.7799V16.4851C51.7828 16.2298 51.7697 15.9746 51.7407 15.721C51.7221 15.5244 51.6702 15.3325 51.5871 15.1533C51.512 15.009 51.4014 14.8861 51.2658 14.7962C51.0994 14.6776 50.9094 14.596 50.7088 14.557L50.3053 14.4892L50.7088 14.4213C50.9187 14.3926 51.1205 14.3209 51.3015 14.2107C51.4566 14.1108 51.5853 13.9748 51.6764 13.8143C51.7771 13.622 51.8458 13.4146 51.8799 13.2002C51.9227 12.9166 51.943 12.6301 51.9406 12.3433C51.9406 12.0791 51.9406 11.8505 51.9228 11.6292C51.9197 11.4437 51.8897 11.2597 51.8335 11.0829ZM51.1872 12.9681C51.1835 13.1261 51.1558 13.2826 51.1051 13.4323C51.0589 13.5627 50.9773 13.6777 50.8695 13.7644C50.7395 13.8572 50.5908 13.9206 50.4338 13.95C50.2093 13.9982 49.9812 14.028 49.7519 14.0393C49.4781 14.0536 49.1425 14.0607 48.745 14.0607H44.5175V10.7901H48.745C49.1377 10.7901 49.4591 10.7901 49.7483 10.8079C49.9783 10.8115 50.2076 10.8341 50.4338 10.8758C50.587 10.9027 50.7336 10.9584 50.8659 11.04C50.9722 11.1116 51.0543 11.2137 51.1015 11.3328C51.1554 11.4694 51.1844 11.6145 51.1872 11.7613C51.1872 11.9255 51.1872 12.1183 51.1872 12.3433C51.1872 12.5682 51.1944 12.7967 51.1872 12.9681Z" fill="#444444"/>
<path d="M62.4201 11.7827C62.3707 11.521 62.2765 11.2698 62.1416 11.0401C62.0084 10.8249 61.8229 10.6468 61.6025 10.5223C61.3217 10.3663 61.0161 10.26 60.6991 10.2081C60.2488 10.1301 59.7922 10.0943 59.3352 10.101H54.0508V17.8848H59.3352C59.792 17.8909 60.2485 17.8562 60.6991 17.7813C61.0158 17.728 61.3212 17.6218 61.6025 17.4671C61.8187 17.3396 62.0012 17.162 62.1345 16.9493C62.2688 16.7181 62.363 16.4658 62.413 16.2031C62.4775 15.8796 62.5133 15.551 62.5201 15.2212C62.5201 14.8641 62.5201 14.4392 62.5201 13.9929C62.5201 13.5466 62.5201 13.1324 62.5201 12.7646C62.5157 12.4351 62.4822 12.1065 62.4201 11.7827ZM61.7774 15.2105C61.7758 15.5002 61.7495 15.7893 61.6989 16.0745C61.6655 16.2827 61.5902 16.4819 61.4775 16.6601C61.3698 16.8201 61.2169 16.9444 61.0383 17.0172C60.8156 17.104 60.5807 17.1557 60.3421 17.1707C60.0707 17.1957 59.7315 17.2064 59.3388 17.2064H54.8077V10.7901H59.3352C59.728 10.7901 60.0671 10.7901 60.3421 10.8258C60.5792 10.8429 60.8126 10.8946 61.0348 10.9794C61.2126 11.0534 61.3652 11.1775 61.4739 11.3364C61.5854 11.5152 61.6606 11.7142 61.6953 11.922C61.7461 12.2085 61.7724 12.4987 61.7739 12.7896C61.7739 13.1253 61.7739 13.5216 61.7739 14.0036C61.7739 14.4857 61.7774 14.8748 61.7774 15.2105Z" fill="#444444"/>
<path d="M65.4052 14.2535H71.3537V13.568H65.4052V10.7901H71.6536V10.101H64.6482V17.8847H71.6536V17.1956H65.4052V14.2535Z" fill="#444444"/>
<path d="M81.6976 13.2003C81.7421 12.9169 81.7624 12.6302 81.7583 12.3434C81.7583 12.0791 81.7583 11.8506 81.7583 11.6292C81.7499 11.4397 81.7151 11.2522 81.6547 11.0722C81.5989 10.9123 81.5059 10.7679 81.3834 10.6509C81.2294 10.5114 81.0465 10.4078 80.8478 10.3474C80.5523 10.2499 80.247 10.1852 79.9373 10.1546C79.4818 10.1077 79.0241 10.0862 78.5662 10.0903H73.5603V17.8741H74.3173V14.7499H78.3948C78.7912 14.7499 79.1304 14.7499 79.4017 14.7749C79.6311 14.7837 79.8593 14.8123 80.0837 14.8606C80.2402 14.8916 80.3886 14.9548 80.5193 15.0463C80.6271 15.133 80.7087 15.2479 80.755 15.3783C80.8056 15.528 80.8333 15.6845 80.8371 15.8425C80.8371 16.0174 80.8371 16.221 80.8371 16.4673V17.8956H81.594V16.4852C81.5951 16.23 81.582 15.9749 81.5548 15.7211C81.5345 15.5248 81.4826 15.3331 81.4012 15.1534C81.325 15.0098 81.2146 14.8872 81.0799 14.7963C80.9073 14.6888 80.7137 14.6195 80.5122 14.5928L80.1051 14.525L80.5122 14.4571C80.7219 14.4277 80.9236 14.356 81.1049 14.2465C81.2546 14.1456 81.3772 14.0095 81.4619 13.8501C81.5811 13.6505 81.6611 13.4299 81.6976 13.2003ZM80.9835 12.9682C80.9797 13.1262 80.952 13.2827 80.9013 13.4324C80.8551 13.5618 80.775 13.6765 80.6693 13.7644C80.5393 13.8573 80.3906 13.9207 80.2337 13.9501C80.0079 13.9983 79.7787 14.0281 79.5481 14.0394C79.2767 14.0394 78.9375 14.0608 78.5448 14.0608H74.3244V10.7902H78.5591C78.9483 10.7902 79.2732 10.7902 79.5624 10.808C79.7912 10.8115 80.0193 10.8342 80.2444 10.8759C80.3988 10.9022 80.5466 10.9579 80.68 11.0401C80.7862 11.1117 80.8684 11.2138 80.9156 11.3329C80.9665 11.4702 80.9942 11.615 80.9978 11.7614C80.9978 11.9256 80.9978 12.1184 80.9978 12.3434C80.9978 12.5683 81.0013 12.7968 80.9906 12.9682H80.9835Z" fill="#444444"/>
<path d="M13.9751 15.9228L9.12654 12.2371L7.40369 14.3714L14.2151 19.64L27.4551 3.19427L24.138 2.95142L13.9751 15.9228Z" fill="#444444"/>
<path d="M23.7894 11.8486C22.2322 17.1971 18.9322 21.5257 13.7894 24.9457C10.4208 23.0982 7.68604 20.2798 5.94081 16.8571C4.35224 13.7657 3.40367 9.96 3.11224 5.51429C6.79758 5.01238 10.4177 4.11285 13.9094 2.83143C15.7494 3.54392 17.6309 4.14408 19.5437 4.62857L21.3408 2.34286C18.8053 1.77119 16.3223 0.987477 13.918 0C9.8351 1.64857 5.29795 2.68857 0.383667 3.19429C0.54081 14.4857 4.28652 23.2829 13.918 28C21.6922 23.2829 26.3837 16.5886 27.298 7.46571L23.7894 11.8486Z" fill="#444444"/>
</svg>
